<?xml version="1.0" encoding="utf-8"?>
<?xml-stylesheet type="text/xsl" href="rss1.xsl"?>
<rss version="2.0" xmlns:atom="http://www.w3.org/2005/Atom" xmlns:content="http://purl.org/rss/1.0/modules/content/" xmlns:dc="http://purl.org/dc/elements/1.1/" xmlns:media="http://search.yahoo.com/mrss/">
<channel>
 <title>Getty</title>
 <link>http://www.gettyimg.com/</link>
 <atom:link href="http://www.gettyimg.com/" rel="self" type="application/rss+xml" />

 
                <item>
                <title><![CDATA[【Singles (lossless)】FLAC - Björk Hyper-ballad 24bits 96khz]]></title>
                <link><![CDATA[https://sharemania.us/threads/bj%C3%B6rk-hyper-ballad-24bits-96khz.244155/]]></link>
                <description><![CDATA[<article>
<blockquote class="messageText SelectQuoteContainer ugc baseHtml">
<img src="https://a5.mzstatic.com/us/r1000/0/Music116/v4/69/62/1c/69621c9a-514f-00cf-1de6-6e49f004fb28/075596174060.jpg" class="bbCodeImage LbImage" alt="[​IMG]" data-url="https://a5.mzstatic.com/us/r1000/0/Music116/v4/69/62/1c/69621c9a-514f-00cf-1de6-6e49f004fb28/075596174060.jpg" style=""> <br>
<br>
<div class="bbCodeBlock bbCodeVfcHH HiddenContent">
<div class="attribution type">Hidden Content:</div>
<blockquote>You must either reply or click 'Like' to see the hidden information contained here.</blockquote>
</div>
<div class="messageTextEndMarker">&nbsp;</div>
</blockquote>
</article>]]></description>
                <author><![CDATA[Rbto61385]]></author>
                </item>

                
                <item>
                <title><![CDATA[【Singles (lossless)】FLAC - Björk Mouth's Cradle 24bits 96khz]]></title>
                <link><![CDATA[https://sharemania.us/threads/bj%C3%B6rk-mouths-cradle-24bits-96khz.244153/]]></link>
                <description><![CDATA[<article>
<blockquote class="messageText SelectQuoteContainer ugc baseHtml">
<img src="https://a5.mzstatic.com/us/r1000/0/Music116/v4/50/2b/d7/502bd72c-f536-6667-16c3-1127f9ad64be/075596298667.jpg" class="bbCodeImage LbImage" alt="[​IMG]" data-url="https://a5.mzstatic.com/us/r1000/0/Music116/v4/50/2b/d7/502bd72c-f536-6667-16c3-1127f9ad64be/075596298667.jpg" style=""> <br>
<br>
<div class="bbCodeBlock bbCodeVfcHH HiddenContent">
<div class="attribution type">Hidden Content:</div>
<blockquote>You must either reply or click 'Like' to see the hidden information contained here.</blockquote>
</div>
<div class="messageTextEndMarker">&nbsp;</div>
</blockquote>
</article>]]></description>
                <author><![CDATA[Rbto61385]]></author>
                </item>

                
                <item>
                <title><![CDATA[【YOUTUBE】WEB-RiP - Ice Spice - Gimme A Light [YouTube 2160p VP9 + Qobuz FLAC HiRes 24bit / 44.1kHz]]]></title>
                <link><![CDATA[https://sharemania.us/threads/ice-spice-gimme-a-light-youtube-2160p-vp9-qobuz-flac-hires-24bit-44-1khz.244154/]]></link>
                <description><![CDATA[<article>
<blockquote class="messageText SelectQuoteContainer ugc baseHtml">
<div style="text-align: center"><img src="https://img.youtube.com/vi/2KC-8IULfqY/maxresdefault.jpg" class="bbCodeImage LbImage" alt="[​IMG]" data-url="https://img.youtube.com/vi/2KC-8IULfqY/maxresdefault.jpg" style=""><br>
​</div>
<div class="bbCodeBlock bbCodeCode">
<div class="type">Code:</div>
<pre>General
Unique ID                                : 207772405911588466626493004859794393656 (0x9C4F8283515C0E670DA42D080A5E0A38)
Complete name                            : Ice Spice - Gimmie A Light (Official Video) [2KC-8IULfqY].mkv
Format                                   : Matroska
Format version                           : Version 4
File size                                : 219 MiB
Duration                                 : 2 min 6 s
Overall bit rate mode                    : Variable
Overall bit rate                         : 14.5 Mb/s
Frame rate                               : 23.976 FPS
Encoded date                             : 2024-05-11 15:14:09 UTC
Writing application                      : mkvmerge v84.0 ('Sleeper') 64-bit
Writing library                          : libebml v1.4.5 + libmatroska v1.7.1 / Lavf60.16.100
Cover                                    : Yes
Attachments                              : cover.jpeg

Video
ID                                       : 1
Format                                   : VP9
Format profile                           : 0
Codec ID                                 : V_VP9
Duration                                 : 2 min 6 s
Bit rate                                 : 12.9 Mb/s
Width                                    : 2 880 pixels
Height                                   : 2 160 pixels
Display aspect ratio                     : 4:3
Frame rate mode                          : Constant
Frame rate                               : 23.976 FPS
Color space                              : YUV
Chroma subsampling                       : 4:2:0 (Type 1)
Bit depth                                : 8 bits
Bits/(Pixel*Frame)                       : 0.087
Stream size                              : 195 MiB (89%)
Title                                    : ISO Media file produced by Google Inc. Created on: 05/11/2024.
Default                                  : Yes
Forced                                   : No
Color range                              : Limited
Color primaries                          : BT.709
Transfer characteristics                 : BT.709
Matrix coefficients                      : BT.709
VENDOR_ID                                : [0][0][0][0]

Audio
ID                                       : 2
Format                                   : FLAC
Format/Info                              : Free Lossless Audio Codec
Codec ID                                 : A_FLAC
Duration                                 : 2 min 6 s
Bit rate mode                            : Variable
Bit rate                                 : 1 575 kb/s
Channel(s)                               : 2 channels
Channel layout                           : L R
Sampling rate                            : 44.1 kHz
Frame rate                               : 9.576 FPS (4605 SPF)
Bit depth                                : 24 bits
Compression mode                         : Lossless
Stream size                              : 23.7 MiB (11%)
Writing library                          : Mutagen 1.47.0
Default                                  : Yes
Forced                                   : No
MD5 of the unencoded content             : 00000000000000000000000000000000

</pre>
</div><div style="text-align: center"><br>
<div class="bbCodeBlock bbCodeVfcHH HiddenContent">
<div class="attribution type">Hidden Content:</div>
<blockquote>You must reply before you can see the hidden data contained here.</blockquote>
</div></div>
<div class="messageTextEndMarker">&nbsp;</div>
</blockquote>
</article>]]></description>
                <author><![CDATA[aove]]></author>
                </item>

                </channel></rss>